<?xml version="1.0" encoding="utf-8"?>
<!-- Generator: Adobe Illustrator 22.0.1, SVG Export Plug-In . SVG Version: 6.00 Build 0)  -->
<svg version="1.0" id="Layer_1" xmlns="http://www.w3.org/2000/svg" xmlns:xlink="http://www.w3.org/1999/xlink" x="0px" y="0px"
	 viewBox="0 0 32 32" style="enable-background:new 0 0 32 32;" xml:space="preserve">
<style type="text/css">
	.st0{fill:#373B40;}
</style>
<path class="st0" d="M30.1,18.9c-0.2-1.5-0.6-2.4-1.3-3.1c-0.7-0.6-1.6-0.9-2.6-0.9H25h-5.2h0c-0.5,0-0.9-0.1-1.1-0.4
	c-0.1-0.1-0.3-0.3-0.4-0.9H28l0.1-1c0-0.2,0.3-4.5-2-7c-0.9-1-2.1-1.6-3.6-1.7L8,3.9c-1.7,0-3.2,0.7-4.3,1.9
	c-1.5,1.7-2.1,4.4-1.8,7.4c0.2,1.5,0.6,2.4,1.3,3.1c0.7,0.6,1.6,0.9,2.6,0.9H7h5.2h0c0.5,0,0.9,0.1,1.1,0.4c0.1,0.1,0.3,0.3,0.4,0.9
	H4l-0.1,1c0,0.2-0.3,4.5,2,7c0.9,1,2.1,1.6,3.6,1.7l14.5,0c1.7,0,3.2-0.7,4.3-1.9C29.8,24.5,30.5,21.8,30.1,18.9z M15.8,11.4h-1.7
	C14,10,13.7,7.8,12.5,6.1h5H22c1,0,1.8,0.3,2.4,1c1.1,1.2,1.4,3.1,1.4,4.3H18H15.8z M4.7,14.5c-0.2-0.2-0.4-0.5-0.6-1.7
	c-0.3-2.3,0.2-4.4,1.2-5.6C6,6.5,6.9,6.1,8,6.1c1,0,1.8,0.3,2.4,1c1.7,1.8,1.5,5.3,1.5,5.4l-0.1,1.2H16c0.1,0.5,0.2,0.9,0.3,1.3H16
	h-3.8H6H5.8v0h0C5.3,14.9,4.9,14.8,4.7,14.5z M16.2,20.6h1.7c0.1,1.4,0.4,3.6,1.6,5.3h-5H10c-1,0-1.8-0.3-2.4-1
	c-1.1-1.2-1.4-3.1-1.4-4.3H14H16.2z M26.7,24.8c-0.7,0.8-1.6,1.1-2.7,1.1c-1,0-1.8-0.3-2.4-1c-1.7-1.8-1.5-5.3-1.5-5.4l0.1-1.2H16
	c-0.1-0.5-0.2-0.9-0.3-1.3H16h3.8H26h0.2v0h0c0.5,0,0.9,0.1,1.1,0.4c0.2,0.2,0.4,0.5,0.6,1.7C28.2,21.5,27.7,23.6,26.7,24.8z"/>
</svg>
